<svg width="24" height="24" viewBox="0 0 24 24" fill="none" xmlns="http://www.w3.org/2000/svg">
<path d="M20.9999 6.00022H15.9999V4.33022C15.9765 3.69004 15.7001 3.08528 15.2315 2.64851C14.7629 2.21174 14.1402 1.97861 13.4999 2.00022H10.4999C9.85969 1.97861 9.237 2.21174 8.76837 2.64851C8.29974 3.08528 8.0234 3.69004 7.99994 4.33022V6.00022H2.99994C2.73472 6.00022 2.48037 6.10558 2.29283 6.29311C2.1053 6.48065 1.99994 6.735 1.99994 7.00022C1.99994 7.26544 2.1053 7.51979 2.29283 7.70733C2.48037 7.89486 2.73472 8.00022 2.99994 8.00022H3.99994V19.0002C3.99994 19.7959 4.31601 20.5589 4.87862 21.1215C5.44123 21.6842 6.20429 22.0002 6.99994 22.0002H16.9999C17.7956 22.0002 18.5587 21.6842 19.1213 21.1215C19.6839 20.5589 19.9999 19.7959 19.9999 19.0002V8.00022H20.9999C21.2652 8.00022 21.5195 7.89486 21.7071 7.70733C21.8946 7.51979 21.9999 7.26544 21.9999 7.00022C21.9999 6.735 21.8946 6.48065 21.7071 6.29311C21.5195 6.10558 21.2652 6.00022 20.9999 6.00022ZM9.99994 16.0002C9.99994 16.2654 9.89458 16.5198 9.70705 16.7073C9.51951 16.8949 9.26516 17.0002 8.99994 17.0002C8.73472 17.0002 8.48037 16.8949 8.29283 16.7073C8.1053 16.5198 7.99994 16.2654 7.99994 16.0002V12.0002C7.99994 11.735 8.1053 11.4806 8.29283 11.2931C8.48037 11.1056 8.73472 11.0002 8.99994 11.0002C9.26516 11.0002 9.51951 11.1056 9.70705 11.2931C9.89458 11.4806 9.99994 11.735 9.99994 12.0002V16.0002ZM9.99994 4.33022C9.99994 4.17022 10.2099 4.00022 10.4999 4.00022H13.4999C13.7899 4.00022 13.9999 4.17022 13.9999 4.33022V6.00022H9.99994V4.33022ZM15.9999 16.0002C15.9999 16.2654 15.8946 16.5198 15.707 16.7073C15.5195 16.8949 15.2652 17.0002 14.9999 17.0002C14.7347 17.0002 14.4804 16.8949 14.2928 16.7073C14.1053 16.5198 13.9999 16.2654 13.9999 16.0002V12.0002C13.9999 11.735 14.1053 11.4806 14.2928 11.2931C14.4804 11.1056 14.7347 11.0002 14.9999 11.0002C15.2652 11.0002 15.5195 11.1056 15.707 11.2931C15.8946 11.4806 15.9999 11.735 15.9999 12.0002V16.0002Z" fill="white"/>
</svg>
